<mxfile host="Electron" modified="2024-02-06T00:38:37.788Z" agent="Mozilla/5.0 (Windows NT 10.0; Win64; x64) AppleWebKit/537.36 (KHTML, like Gecko) draw.io/23.0.2 Chrome/120.0.6099.109 Electron/28.1.0 Safari/537.36" etag="ez6n7pN9Dch2sXi_aUpw" version="23.0.2" type="device">
  <diagram name="Page-1" id="fqch6oJwhl9PM7OAROhY">
    <mxGraphModel dx="941" dy="644" grid="0" gridSize="10" guides="1" tooltips="1" connect="1" arrows="1" fold="1" page="0" pageScale="1" pageWidth="850" pageHeight="1100" math="0" shadow="0">
      <root>
        <mxCell id="0" />
        <mxCell id="1" parent="0" />
        <mxCell id="r5HOf4FEbj8JBBD3qUiD-1" value="Начало" style="strokeWidth=1;html=1;shape=mxgraph.flowchart.terminator;whiteSpace=wrap;rotation=0;" vertex="1" parent="1">
          <mxGeometry x="116" y="31.5" width="204" height="58" as="geometry" />
        </mxCell>
        <mxCell id="r5HOf4FEbj8JBBD3qUiD-2" value="Конец" style="strokeWidth=1;html=1;shape=mxgraph.flowchart.terminator;whiteSpace=wrap;rotation=0;" vertex="1" parent="1">
          <mxGeometry x="620" y="712" width="204" height="58" as="geometry" />
        </mxCell>
        <mxCell id="r5HOf4FEbj8JBBD3qUiD-4" value="" style="strokeWidth=1;html=1;shape=mxgraph.flowchart.annotation_2;align=left;labelPosition=right;pointerEvents=1;" vertex="1" parent="1">
          <mxGeometry x="336" y="19.5" width="50" height="79" as="geometry" />
        </mxCell>
        <mxCell id="r5HOf4FEbj8JBBD3qUiD-5" value="Вызов функции создания потока" style="shape=process;whiteSpace=wrap;html=1;backgroundOutline=1;rotation=0;" vertex="1" parent="1">
          <mxGeometry x="620" y="290" width="204" height="58" as="geometry" />
        </mxCell>
        <mxCell id="r5HOf4FEbj8JBBD3qUiD-6" value="" style="endArrow=none;dashed=1;html=1;dashPattern=1 3;strokeWidth=2;rounded=0;entryX=1;entryY=0.5;entryDx=0;entryDy=0;entryPerimeter=0;exitX=0;exitY=0.5;exitDx=0;exitDy=0;exitPerimeter=0;" edge="1" parent="1" source="r5HOf4FEbj8JBBD3qUiD-4" target="r5HOf4FEbj8JBBD3qUiD-1">
          <mxGeometry width="50" height="50" relative="1" as="geometry">
            <mxPoint x="399" y="358" as="sourcePoint" />
            <mxPoint x="449" y="308" as="targetPoint" />
          </mxGeometry>
        </mxCell>
        <mxCell id="r5HOf4FEbj8JBBD3qUiD-7" value="Многопоточный алгоритм" style="text;html=1;strokeColor=none;fillColor=none;align=center;verticalAlign=middle;whiteSpace=wrap;rounded=0;" vertex="1" parent="1">
          <mxGeometry x="364" y="15" width="155.5" height="30" as="geometry" />
        </mxCell>
        <mxCell id="r5HOf4FEbj8JBBD3qUiD-8" value="Вход: текст input_text, словарь dictionary, количество потоков num_threads" style="text;html=1;strokeColor=none;fillColor=none;align=center;verticalAlign=middle;whiteSpace=wrap;rounded=0;" vertex="1" parent="1">
          <mxGeometry x="374" y="56" width="132" height="30" as="geometry" />
        </mxCell>
        <mxCell id="r5HOf4FEbj8JBBD3qUiD-11" value="Цикл i = 0; i &amp;lt; num_threads; ++i" style="shape=loopLimit;whiteSpace=wrap;html=1;rotation=0;" vertex="1" parent="1">
          <mxGeometry x="116" y="770" width="204" height="58" as="geometry" />
        </mxCell>
        <mxCell id="r5HOf4FEbj8JBBD3qUiD-12" value="Конец цикла по i" style="shape=loopLimit;whiteSpace=wrap;html=1;rotation=0;direction=west;" vertex="1" parent="1">
          <mxGeometry x="620" y="377" width="204" height="58" as="geometry" />
        </mxCell>
        <mxCell id="r5HOf4FEbj8JBBD3qUiD-18" value="end = start + wordsPerThread + (i == num_threads - 1 ? remainder : 0)" style="rounded=0;whiteSpace=wrap;html=1;rotation=0;" vertex="1" parent="1">
          <mxGeometry x="620" y="208" width="204" height="58" as="geometry" />
        </mxCell>
        <mxCell id="r5HOf4FEbj8JBBD3qUiD-19" value="start = i * wordsPerThread" style="rounded=0;whiteSpace=wrap;html=1;rotation=0;" vertex="1" parent="1">
          <mxGeometry x="620" y="127" width="204" height="58" as="geometry" />
        </mxCell>
        <mxCell id="r5HOf4FEbj8JBBD3qUiD-25" value="" style="endArrow=classic;html=1;rounded=0;entryX=0.5;entryY=0;entryDx=0;entryDy=0;exitX=0.5;exitY=1;exitDx=0;exitDy=0;exitPerimeter=0;" edge="1" parent="1" source="r5HOf4FEbj8JBBD3qUiD-1" target="r5HOf4FEbj8JBBD3qUiD-49">
          <mxGeometry width="50" height="50" relative="1" as="geometry">
            <mxPoint x="399" y="287" as="sourcePoint" />
            <mxPoint x="218" y="113" as="targetPoint" />
          </mxGeometry>
        </mxCell>
        <mxCell id="r5HOf4FEbj8JBBD3qUiD-28" value="" style="endArrow=classic;html=1;rounded=0;entryX=0.5;entryY=0;entryDx=0;entryDy=0;exitX=0.5;exitY=1;exitDx=0;exitDy=0;" edge="1" parent="1" source="r5HOf4FEbj8JBBD3qUiD-62" target="r5HOf4FEbj8JBBD3qUiD-11">
          <mxGeometry width="50" height="50" relative="1" as="geometry">
            <mxPoint x="20" y="563" as="sourcePoint" />
            <mxPoint x="251" y="523" as="targetPoint" />
          </mxGeometry>
        </mxCell>
        <mxCell id="r5HOf4FEbj8JBBD3qUiD-35" value="" style="endArrow=classic;html=1;rounded=0;entryX=0.5;entryY=0;entryDx=0;entryDy=0;exitX=0.5;exitY=1;exitDx=0;exitDy=0;" edge="1" parent="1" target="r5HOf4FEbj8JBBD3qUiD-19">
          <mxGeometry width="50" height="50" relative="1" as="geometry">
            <mxPoint x="722" y="102" as="sourcePoint" />
            <mxPoint x="953" y="11" as="targetPoint" />
          </mxGeometry>
        </mxCell>
        <mxCell id="r5HOf4FEbj8JBBD3qUiD-36" value="" style="endArrow=classic;html=1;rounded=0;entryX=0.5;entryY=0;entryDx=0;entryDy=0;exitX=0.5;exitY=1;exitDx=0;exitDy=0;" edge="1" parent="1" source="r5HOf4FEbj8JBBD3qUiD-19" target="r5HOf4FEbj8JBBD3qUiD-18">
          <mxGeometry width="50" height="50" relative="1" as="geometry">
            <mxPoint x="851" y="245" as="sourcePoint" />
            <mxPoint x="901" y="195" as="targetPoint" />
          </mxGeometry>
        </mxCell>
        <mxCell id="r5HOf4FEbj8JBBD3qUiD-37" value="" style="endArrow=classic;html=1;rounded=0;entryX=0.5;entryY=0;entryDx=0;entryDy=0;exitX=0.5;exitY=1;exitDx=0;exitDy=0;" edge="1" parent="1" source="r5HOf4FEbj8JBBD3qUiD-18" target="r5HOf4FEbj8JBBD3qUiD-5">
          <mxGeometry width="50" height="50" relative="1" as="geometry">
            <mxPoint x="851" y="245" as="sourcePoint" />
            <mxPoint x="722" y="297" as="targetPoint" />
          </mxGeometry>
        </mxCell>
        <mxCell id="r5HOf4FEbj8JBBD3qUiD-43" value="" style="endArrow=classic;html=1;rounded=0;entryX=0.5;entryY=0;entryDx=0;entryDy=0;exitX=0.5;exitY=0;exitDx=0;exitDy=0;" edge="1" parent="1" source="r5HOf4FEbj8JBBD3qUiD-12" target="r5HOf4FEbj8JBBD3qUiD-68">
          <mxGeometry width="50" height="50" relative="1" as="geometry">
            <mxPoint x="979" y="616" as="sourcePoint" />
            <mxPoint x="722" y="462" as="targetPoint" />
          </mxGeometry>
        </mxCell>
        <mxCell id="r5HOf4FEbj8JBBD3qUiD-45" value="" style="endArrow=classic;html=1;rounded=0;entryX=0.5;entryY=0;entryDx=0;entryDy=0;entryPerimeter=0;exitX=0.5;exitY=0;exitDx=0;exitDy=0;" edge="1" parent="1" source="r5HOf4FEbj8JBBD3qUiD-66" target="r5HOf4FEbj8JBBD3qUiD-2">
          <mxGeometry width="50" height="50" relative="1" as="geometry">
            <mxPoint x="979" y="740" as="sourcePoint" />
            <mxPoint x="1083" y="746" as="targetPoint" />
          </mxGeometry>
        </mxCell>
        <mxCell id="r5HOf4FEbj8JBBD3qUiD-46" value="A" style="ellipse;whiteSpace=wrap;html=1;aspect=fixed;" vertex="1" parent="1">
          <mxGeometry x="187" y="859" width="62" height="62" as="geometry" />
        </mxCell>
        <mxCell id="r5HOf4FEbj8JBBD3qUiD-47" value="" style="endArrow=classic;html=1;rounded=0;entryX=0.5;entryY=0;entryDx=0;entryDy=0;exitX=0.5;exitY=1;exitDx=0;exitDy=0;" edge="1" parent="1" source="r5HOf4FEbj8JBBD3qUiD-11" target="r5HOf4FEbj8JBBD3qUiD-46">
          <mxGeometry width="50" height="50" relative="1" as="geometry">
            <mxPoint x="20" y="1028" as="sourcePoint" />
            <mxPoint x="94" y="904" as="targetPoint" />
          </mxGeometry>
        </mxCell>
        <mxCell id="r5HOf4FEbj8JBBD3qUiD-48" value="A" style="ellipse;whiteSpace=wrap;html=1;aspect=fixed;" vertex="1" parent="1">
          <mxGeometry x="691" y="40" width="62" height="62" as="geometry" />
        </mxCell>
        <mxCell id="r5HOf4FEbj8JBBD3qUiD-49" value="words()" style="shape=process;whiteSpace=wrap;html=1;backgroundOutline=1;rotation=0;" vertex="1" parent="1">
          <mxGeometry x="116" y="110.5" width="204" height="58" as="geometry" />
        </mxCell>
        <mxCell id="r5HOf4FEbj8JBBD3qUiD-50" value="iss(temp_text)" style="shape=process;whiteSpace=wrap;html=1;backgroundOutline=1;rotation=0;" vertex="1" parent="1">
          <mxGeometry x="116" y="191" width="204" height="58" as="geometry" />
        </mxCell>
        <mxCell id="r5HOf4FEbj8JBBD3qUiD-51" value="" style="endArrow=classic;html=1;rounded=0;entryX=0.5;entryY=0;entryDx=0;entryDy=0;exitX=0.5;exitY=1;exitDx=0;exitDy=0;" edge="1" parent="1" source="r5HOf4FEbj8JBBD3qUiD-49" target="r5HOf4FEbj8JBBD3qUiD-50">
          <mxGeometry width="50" height="50" relative="1" as="geometry">
            <mxPoint x="355" y="372" as="sourcePoint" />
            <mxPoint x="405" y="322" as="targetPoint" />
          </mxGeometry>
        </mxCell>
        <mxCell id="r5HOf4FEbj8JBBD3qUiD-52" value="resultMutex()" style="shape=process;whiteSpace=wrap;html=1;backgroundOutline=1;rotation=0;" vertex="1" parent="1">
          <mxGeometry x="116" y="517" width="204" height="58" as="geometry" />
        </mxCell>
        <mxCell id="r5HOf4FEbj8JBBD3qUiD-53" value="correctedWords()" style="shape=process;whiteSpace=wrap;html=1;backgroundOutline=1;rotation=0;" vertex="1" parent="1">
          <mxGeometry x="116" y="431" width="204" height="58" as="geometry" />
        </mxCell>
        <mxCell id="r5HOf4FEbj8JBBD3qUiD-54" value="threads()" style="shape=process;whiteSpace=wrap;html=1;backgroundOutline=1;rotation=0;" vertex="1" parent="1">
          <mxGeometry x="116" y="350" width="204" height="58" as="geometry" />
        </mxCell>
        <mxCell id="r5HOf4FEbj8JBBD3qUiD-55" value="copy(istream_iterator&amp;lt;string&amp;gt;{iss}, istream_iterator&amp;lt;string&amp;gt;(), back_inserter(words))" style="shape=process;whiteSpace=wrap;html=1;backgroundOutline=1;rotation=0;" vertex="1" parent="1">
          <mxGeometry x="116" y="269" width="204" height="58" as="geometry" />
        </mxCell>
        <mxCell id="r5HOf4FEbj8JBBD3qUiD-56" value="" style="endArrow=classic;html=1;rounded=0;entryX=0.5;entryY=0;entryDx=0;entryDy=0;exitX=0.5;exitY=1;exitDx=0;exitDy=0;" edge="1" parent="1" source="r5HOf4FEbj8JBBD3qUiD-50" target="r5HOf4FEbj8JBBD3qUiD-55">
          <mxGeometry width="50" height="50" relative="1" as="geometry">
            <mxPoint x="355" y="372" as="sourcePoint" />
            <mxPoint x="405" y="322" as="targetPoint" />
          </mxGeometry>
        </mxCell>
        <mxCell id="r5HOf4FEbj8JBBD3qUiD-57" value="" style="endArrow=classic;html=1;rounded=0;entryX=0.5;entryY=0;entryDx=0;entryDy=0;exitX=0.5;exitY=1;exitDx=0;exitDy=0;" edge="1" parent="1" source="r5HOf4FEbj8JBBD3qUiD-55" target="r5HOf4FEbj8JBBD3qUiD-54">
          <mxGeometry width="50" height="50" relative="1" as="geometry">
            <mxPoint x="355" y="372" as="sourcePoint" />
            <mxPoint x="405" y="322" as="targetPoint" />
          </mxGeometry>
        </mxCell>
        <mxCell id="r5HOf4FEbj8JBBD3qUiD-58" value="" style="endArrow=classic;html=1;rounded=0;entryX=0.5;entryY=0;entryDx=0;entryDy=0;exitX=0.5;exitY=1;exitDx=0;exitDy=0;" edge="1" parent="1" source="r5HOf4FEbj8JBBD3qUiD-54" target="r5HOf4FEbj8JBBD3qUiD-53">
          <mxGeometry width="50" height="50" relative="1" as="geometry">
            <mxPoint x="355" y="372" as="sourcePoint" />
            <mxPoint x="405" y="322" as="targetPoint" />
          </mxGeometry>
        </mxCell>
        <mxCell id="r5HOf4FEbj8JBBD3qUiD-59" value="" style="endArrow=classic;html=1;rounded=0;entryX=0.5;entryY=0;entryDx=0;entryDy=0;exitX=0.5;exitY=1;exitDx=0;exitDy=0;" edge="1" parent="1" source="r5HOf4FEbj8JBBD3qUiD-53" target="r5HOf4FEbj8JBBD3qUiD-52">
          <mxGeometry width="50" height="50" relative="1" as="geometry">
            <mxPoint x="355" y="372" as="sourcePoint" />
            <mxPoint x="405" y="322" as="targetPoint" />
          </mxGeometry>
        </mxCell>
        <mxCell id="r5HOf4FEbj8JBBD3qUiD-60" value="wordsPerThread = words.size() / num_threads" style="shape=process;whiteSpace=wrap;html=1;backgroundOutline=1;rotation=0;" vertex="1" parent="1">
          <mxGeometry x="116" y="599" width="204" height="58" as="geometry" />
        </mxCell>
        <mxCell id="r5HOf4FEbj8JBBD3qUiD-62" value="remainder = words.size() % num_threads" style="shape=process;whiteSpace=wrap;html=1;backgroundOutline=1;rotation=0;" vertex="1" parent="1">
          <mxGeometry x="116" y="681" width="204" height="58" as="geometry" />
        </mxCell>
        <mxCell id="r5HOf4FEbj8JBBD3qUiD-63" value="" style="endArrow=classic;html=1;rounded=0;entryX=0.5;entryY=0;entryDx=0;entryDy=0;exitX=0.5;exitY=1;exitDx=0;exitDy=0;" edge="1" parent="1" source="r5HOf4FEbj8JBBD3qUiD-52" target="r5HOf4FEbj8JBBD3qUiD-60">
          <mxGeometry width="50" height="50" relative="1" as="geometry">
            <mxPoint x="336" y="567" as="sourcePoint" />
            <mxPoint x="386" y="517" as="targetPoint" />
          </mxGeometry>
        </mxCell>
        <mxCell id="r5HOf4FEbj8JBBD3qUiD-64" value="" style="endArrow=classic;html=1;rounded=0;entryX=0.5;entryY=0;entryDx=0;entryDy=0;exitX=0.5;exitY=1;exitDx=0;exitDy=0;" edge="1" parent="1" source="r5HOf4FEbj8JBBD3qUiD-60" target="r5HOf4FEbj8JBBD3qUiD-62">
          <mxGeometry width="50" height="50" relative="1" as="geometry">
            <mxPoint x="336" y="567" as="sourcePoint" />
            <mxPoint x="386" y="517" as="targetPoint" />
          </mxGeometry>
        </mxCell>
        <mxCell id="r5HOf4FEbj8JBBD3qUiD-65" value="" style="endArrow=classic;html=1;rounded=0;entryX=0.5;entryY=1;entryDx=0;entryDy=0;exitX=0.5;exitY=1;exitDx=0;exitDy=0;" edge="1" parent="1" source="r5HOf4FEbj8JBBD3qUiD-5" target="r5HOf4FEbj8JBBD3qUiD-12">
          <mxGeometry width="50" height="50" relative="1" as="geometry">
            <mxPoint x="674" y="514" as="sourcePoint" />
            <mxPoint x="724" y="464" as="targetPoint" />
          </mxGeometry>
        </mxCell>
        <mxCell id="r5HOf4FEbj8JBBD3qUiD-66" value="Конец цикла по thread" style="shape=loopLimit;whiteSpace=wrap;html=1;rotation=0;direction=west;" vertex="1" parent="1">
          <mxGeometry x="620" y="626" width="204" height="58" as="geometry" />
        </mxCell>
        <mxCell id="r5HOf4FEbj8JBBD3qUiD-67" value="thread.join()" style="shape=process;whiteSpace=wrap;html=1;backgroundOutline=1;rotation=0;" vertex="1" parent="1">
          <mxGeometry x="620" y="544" width="204" height="58" as="geometry" />
        </mxCell>
        <mxCell id="r5HOf4FEbj8JBBD3qUiD-68" value="Цикл по thread в threads" style="shape=loopLimit;whiteSpace=wrap;html=1;rotation=0;" vertex="1" parent="1">
          <mxGeometry x="620" y="463" width="204" height="58" as="geometry" />
        </mxCell>
        <mxCell id="r5HOf4FEbj8JBBD3qUiD-69" value="" style="endArrow=classic;html=1;rounded=0;entryX=0.5;entryY=0;entryDx=0;entryDy=0;exitX=0.5;exitY=1;exitDx=0;exitDy=0;" edge="1" parent="1" source="r5HOf4FEbj8JBBD3qUiD-68" target="r5HOf4FEbj8JBBD3qUiD-67">
          <mxGeometry width="50" height="50" relative="1" as="geometry">
            <mxPoint x="540" y="616" as="sourcePoint" />
            <mxPoint x="590" y="566" as="targetPoint" />
          </mxGeometry>
        </mxCell>
        <mxCell id="r5HOf4FEbj8JBBD3qUiD-70" value="" style="endArrow=classic;html=1;rounded=0;entryX=0.5;entryY=1;entryDx=0;entryDy=0;exitX=0.5;exitY=1;exitDx=0;exitDy=0;" edge="1" parent="1" source="r5HOf4FEbj8JBBD3qUiD-67" target="r5HOf4FEbj8JBBD3qUiD-66">
          <mxGeometry width="50" height="50" relative="1" as="geometry">
            <mxPoint x="540" y="616" as="sourcePoint" />
            <mxPoint x="590" y="566" as="targetPoint" />
          </mxGeometry>
        </mxCell>
      </root>
    </mxGraphModel>
  </diagram>
</mxfile>
